<svg width="38" height="50" viewBox="0 0 38 50" fill="none" xmlns="http://www.w3.org/2000/svg">
<path d="M21.875 13.2812V0H2.34375C1.04492 0 0 1.04492 0 2.34375V47.6562C0 48.9551 1.04492 50 2.34375 50H35.1562C36.4551 50 37.5 48.9551 37.5 47.6562V15.625H24.2188C22.9297 15.625 21.875 14.5703 21.875 13.2812ZM29.3408 33.9219L19.9248 43.2676C19.2754 43.9131 18.2266 43.9131 17.5771 43.2676L8.16113 33.9219C7.16992 32.9385 7.86523 31.25 9.25977 31.25H15.625V23.4375C15.625 22.5742 16.3242 21.875 17.1875 21.875H20.3125C21.1758 21.875 21.875 22.5742 21.875 23.4375V31.25H28.2402C29.6348 31.25 30.3301 32.9385 29.3408 33.9219ZM36.8164 10.2539L27.2559 0.683594C26.8164 0.244141 26.2207 0 25.5957 0H25V12.5H37.5V11.9043C37.5 11.2891 37.2559 10.6934 36.8164 10.2539Z" fill="#EEEEEE"/>
</svg>
