<svg width="50" height="44" viewBox="0 0 45 40" fill="none" xmlns="http://www.w3.org/2000/svg" className="svgIcon">
<path d="M12.5 35C10.5 35 8.5 33.25 7.5 32.5C2.5 29 1 27.75 0 27V37.5C0 38.8805 1.11953 40 2.5 40H22.5C23.8805 40 25 38.8805 25 37.5V27C24 27.75 22.5 29 17.5 32.5C16.5 33.25 14.5 35 12.5 35ZM22.5 20H2.5C1.11953 20 0 21.1195 0 22.5V23.75C2 25.25 1.75 25.25 9 30.5C9.75 31 11.25 32.5 12.5 32.5C13.75 32.5 15.25 31 16 30.75C23.25 25.5 23 25.5 25 24V22.5C25 21.1195 23.8805 20 22.5 20ZM42.5 12.5H17.5C16.1195 12.5 15 13.6195 15 15V17.5H22.5C25.0945 17.5 27.2336 19.4859 27.4773 22.0172L27.5 22V32.5H42.5C43.8805 32.5 45 31.3805 45 30V15C45 13.6195 43.8805 12.5 42.5 12.5ZM40 22.5H35V17.5H40V22.5ZM12.5 15C12.5 12.243 14.743 10 17.5 10H35V2.5C35 1.11953 33.8805 0 32.5 0H7.5C6.11953 0 5 1.11953 5 2.5V17.5H12.5V15Z" fill="#EEEEEE"/>
</svg>
