<svg width="67" height="50" viewBox="0 0 67 50" fill="none" xmlns="http://www.w3.org/2000/svg">
<path d="M31.4387 37.8006C31.4075 37.8631 31.3762 37.9131 31.4387 37.8006V37.8006ZM57.3877 28.7389C55.2928 28.7382 53.2258 29.2193 51.3465 30.145C50.732 28.9055 50.0966 27.8223 49.9924 27.0099C49.8674 26.062 49.732 25.4996 49.8779 24.3747C50.0237 23.2497 50.6799 21.6561 50.6695 21.5416C50.659 21.427 50.5236 20.8541 49.18 20.8437C47.8364 20.8333 46.6802 21.1041 46.5458 21.4582C46.3085 22.1054 46.1239 22.7707 45.9938 23.4476C45.7542 24.6663 43.3076 29.0201 41.9223 31.2908C41.464 30.4054 41.0786 29.6242 40.9952 28.9993C40.8703 28.0514 40.7349 27.489 40.8807 26.3641C41.0265 25.2392 41.6827 23.6455 41.6723 23.531C41.6619 23.4164 41.5265 22.8435 40.1839 22.8331C38.8413 22.8227 37.6841 23.0935 37.5487 23.4476C37.4132 23.8018 37.2674 24.6351 36.9966 25.4371C36.7258 26.2391 33.4667 33.4885 32.6136 35.3738C32.1762 36.332 31.8012 37.1028 31.5304 37.6236C31.4887 37.7069 31.4575 37.759 31.4367 37.8006C31.4679 37.7486 31.4887 37.6965 31.4887 37.7173C31.2596 38.1652 31.1242 38.4152 31.1242 38.4152V38.4256C30.9471 38.7589 30.7492 39.061 30.6555 39.061C30.593 39.061 30.4576 38.186 30.6867 36.9882C31.1763 34.4676 32.3324 30.5512 32.322 30.4158C32.3116 30.3429 32.5407 29.6659 31.5616 29.3013C30.6138 28.9576 30.2701 29.5305 30.1868 29.5305C30.1034 29.5305 30.0409 29.7388 30.0409 29.7388C30.0409 29.7388 31.0929 25.3225 28.0213 25.3225C26.1048 25.3225 23.4383 27.4265 22.128 29.3326C21.3052 29.7805 19.5241 30.7491 17.6492 31.7803C16.9305 32.1761 16.191 32.5823 15.4932 32.9677C15.4411 32.9156 15.3994 32.8635 15.3473 32.8115C11.6195 28.8326 4.73674 26.0204 5.02839 20.677C5.13254 18.7293 5.80957 13.6151 18.2638 7.40729C28.4713 2.32437 36.6321 3.72009 38.0372 6.824C40.0578 11.2507 33.674 19.4896 23.0738 20.677C19.0335 21.1249 16.9097 19.5625 16.3785 18.9793C15.8265 18.3647 15.7431 18.3335 15.5348 18.4481C15.1911 18.6355 15.4098 19.1772 15.5348 19.5001C15.8473 20.3229 17.1493 21.7811 19.3668 22.5102C21.3146 23.1456 26.0517 23.4997 31.7793 21.2812C38.2142 18.8022 43.2232 11.8965 41.7546 6.11573C40.2589 0.241205 30.518 -1.68572 21.3073 1.58485C15.8192 3.5326 9.88424 6.59485 5.6148 10.5841C0.543335 15.3337 -0.268058 19.4688 0.0652485 21.1978C1.25161 27.3327 9.70717 31.3324 13.0913 34.2905C12.9246 34.3843 12.7684 34.4676 12.6226 34.5509C10.9258 35.3946 4.47947 38.7693 2.86606 42.3315C1.04329 46.3729 3.16812 49.2685 4.5628 49.6643C8.91557 50.8725 13.3725 48.6956 15.7671 45.123C18.1617 41.5503 17.8711 36.8841 16.767 34.7592C16.7566 34.728 16.7358 34.7071 16.7253 34.6759C17.1628 34.4155 17.6107 34.1551 18.0586 33.8947C18.922 33.3843 19.7657 32.9156 20.5052 32.5094C20.0886 33.6343 19.7866 34.9884 19.6303 36.9465C19.4428 39.238 20.3907 42.2065 21.6197 43.3731C22.1614 43.8835 22.8165 43.8939 23.2227 43.8939C24.6601 43.8939 25.3059 42.7065 26.0236 41.2899C26.9089 39.5609 27.6901 37.5507 27.6901 37.5507C27.6901 37.5507 26.711 42.9877 29.3879 42.9877C30.3659 42.9877 31.345 41.7274 31.7835 41.0816V41.092C31.7835 41.092 31.8043 41.0504 31.8564 40.9671C31.9606 40.8108 32.0126 40.7171 32.0126 40.7171V40.6858C32.4084 40.0088 33.273 38.4568 34.5739 35.8945C36.2613 32.5823 37.8747 28.4472 37.8747 28.4472C38.0306 29.3562 38.2463 30.2539 38.5204 31.1345C38.8121 32.124 39.4266 33.2073 39.9162 34.2593C39.5204 34.8009 39.2808 35.1134 39.2808 35.1134C39.2816 35.1214 39.2853 35.1288 39.2912 35.1342C38.9787 35.5508 38.6246 35.9987 38.2601 36.4362C36.9279 38.0194 35.3436 39.8317 35.1353 40.3525C34.8853 40.9671 34.9478 41.4253 35.427 41.7795C35.7811 42.0503 36.406 42.092 37.0612 42.0399C38.259 41.9566 39.1027 41.6649 39.5089 41.4774C40.2578 41.2089 40.9656 40.8373 41.6119 40.3734C42.9138 39.4151 43.7054 38.0402 43.6325 36.2279C43.5909 35.2279 43.268 34.228 42.8722 33.2906C42.9868 33.1239 43.1117 32.9469 43.2263 32.7698C45.2876 29.7596 46.8812 26.4557 46.8812 26.4557C47.0371 27.3647 47.2529 28.2624 47.527 29.143C47.777 29.9867 48.2655 30.9137 48.7134 31.8199C46.7771 33.3927 45.5793 35.2154 45.1626 36.4133C44.3918 38.6318 44.996 39.6317 46.1313 39.8609C46.6417 39.9651 47.3708 39.7255 47.9124 39.4963C48.7168 39.2284 49.4752 38.8385 50.1612 38.3402C51.4631 37.3819 52.7224 36.0383 52.6391 34.2155C52.6078 33.3927 52.3787 32.5698 52.0766 31.7782C53.7119 31.0908 55.8357 30.7158 58.5438 31.0283C64.3434 31.7053 65.4787 35.33 65.2599 36.8403C65.0412 38.3506 63.8226 39.1943 63.4163 39.4443C63.0101 39.6942 62.8851 39.788 62.9164 39.9755C62.9685 40.2463 63.1559 40.2359 63.4997 40.1734C63.9788 40.09 66.54 38.9443 66.6546 36.1424C66.8213 32.6011 63.4163 28.7056 57.3845 28.7368L57.3877 28.7389ZM12.6851 43.8106C10.7696 45.9041 8.0823 46.6958 6.92719 46.0291C5.68771 45.3084 6.17725 42.2274 8.5406 39.9963C9.97798 38.6422 11.831 37.3923 13.06 36.6216C13.3413 36.4549 13.7475 36.2049 14.2474 35.9029C14.3308 35.8508 14.3724 35.83 14.3724 35.83C14.4662 35.7675 14.5703 35.7154 14.6745 35.6529C15.5379 38.8193 14.7057 41.6108 12.6851 43.8085V43.8106ZM26.6797 34.2905C26.0131 35.9258 24.608 40.0921 23.7539 39.8734C23.0248 39.6859 22.577 36.5091 23.6081 33.3843C24.1289 31.8115 25.233 29.9367 25.8892 29.2076C26.9401 28.0306 28.0963 27.6556 28.3671 28.1243C28.7317 28.7389 27.0964 33.2698 26.6797 34.2905ZM38.2413 39.8109C37.9601 39.9567 37.6997 40.0505 37.5747 39.9776C37.481 39.9255 37.6893 39.7276 37.6893 39.7276C37.6893 39.7276 39.1371 38.1756 39.7099 37.4673C40.0432 37.0507 40.4286 36.5612 40.8442 36.0195C40.8442 36.0716 40.8546 36.1237 40.8546 36.1862C40.8411 38.0506 39.0506 39.3109 38.2382 39.8109H38.2413ZM47.1552 37.7798C46.9468 37.634 46.9781 37.1444 47.676 35.6237C47.9468 35.03 48.5707 34.0301 49.655 33.0719C49.7777 33.4346 49.8444 33.8139 49.8529 34.1968C49.8424 36.5403 48.1655 37.4153 47.1562 37.7798H47.1552Z" fill="#EEEEEE"/>
</svg>
