<svg width="50" height="50" viewBox="0 0 50 50" fill="none" xmlns="http://www.w3.org/2000/svg">
<path d="M43.7884 0H6.26612C2.8063 0 0.00496032 2.80134 0.00496032 6.25C-0.0062004 6.25 0.00496032 5.80357 0.00496032 43.75C0.00496032 47.1987 2.8063 50 6.25496 50H43.7773C47.2148 49.9777 49.9938 47.1875 49.9938 43.75V6.25C50.005 2.8125 47.2259 0.0223214 43.7884 0V0ZM21.9916 37.8683C21.9692 39.5089 20.6411 40.8371 18.9893 40.8371H9.75942C8.10764 40.8482 6.75719 39.5201 6.74603 37.8683V9.49777C6.74603 7.84598 8.08532 6.49554 9.74826 6.49554H19.0005C20.6523 6.49554 22.0027 7.83482 22.0027 9.49777V37.8683H21.9916ZM43.5429 25.3683C43.5429 27.0201 42.2036 28.3705 40.5407 28.3705H31.5005C29.8487 28.3705 28.4983 27.0312 28.4983 25.3683V9.50893C28.4983 7.85714 29.8375 6.5067 31.4893 6.5067H40.5407C42.1925 6.5067 43.5429 7.84598 43.5429 9.50893V25.3683Z" fill="#EEEEEE"/>
</svg>
